<?xml version="1.0" encoding="UTF-8" standalone="no"?>
<!DOCTYPE svg PUBLIC "-//W3C//DTD SVG 1.1//EN" "http://www.w3.org/Graphics/SVG/1.1/DTD/svg11.dtd">
<svg width="600px" height="600px" version="1.1" xmlns="http://www.w3.org/2000/svg" xmlns:xlink="http://www.w3.org/1999/xlink" xml:space="preserve" xmlns:serif="http://www.serif.com/" style="fill-rule:evenodd;clip-rule:evenodd;stroke-linecap:round;stroke-linejoin:round;stroke-miterlimit:1.5;">
    <g transform="matrix(0.501924,0,0,1.11917,-2.5954,21.2142)">
        <rect x="-25.98" y="-27.403" width="1241.01" height="555.558" style="fill:rgb(223,232,221);"/>
    </g>
    <g transform="matrix(1.14669,-0.0431126,0.0431126,1.14669,191.602,22.9081)">
        <path d="M128.023,381.091C119.235,401.965 139.64,413.772 117.565,430.792C84.2,456.517 81.252,493.22 82.337,491.556C90.046,479.731 101.067,471.262 109.517,467.436C116.954,464.068 145.2,457.214 154.248,454.213C179.414,445.864 196.256,438.758 218.806,412.849C225.621,405.019 229.814,396.68 234.705,385.838C235.213,384.713 236.254,389.881 235.867,394.896C235.48,399.912 233.667,404.776 233.755,404.652C245.877,387.543 242.525,368.082 237.084,357.943C233.94,352.086 227.995,337.913 222.3,330.178C209.926,313.373 198.513,298.724 195.735,284.794C192.569,268.914 187.407,248.623 177.104,237.042C159.937,217.744 148.108,216.856 132.667,218.777C117.227,220.697 112.872,226.328 107.96,232.245C100.484,241.251 99.354,247.312 99.27,251.419C99.185,255.526 99.495,258.073 99.955,265.762C100.359,272.518 94.279,278.586 93.959,280.555C93.639,282.525 94.725,285.369 99.117,285.679C101.426,285.842 97.163,292.151 97.719,293.576C98.387,295.286 99.136,295.109 101.065,295.645C102.013,295.908 98.328,296.281 99.957,299.184C101.25,301.49 102.754,299.224 103.711,302.511C104.872,306.5 103.099,307.309 105.972,310.676C111.975,317.71 127.931,304.684 137.47,309.53C143.081,312.38 142.809,318.895 145.692,326.227C148.761,334.032 152.54,341.989 152.902,344.961C154.61,358.974 134.723,365.177 128.023,381.091Z" style="stroke:rgb(13,13,13);stroke-width:1.45px;"/>
    </g>
    <g transform="matrix(1.78709,1.92018,-1.92018,1.78709,744.642,-511.16)">
        <path d="M49.373,330.472C39.545,330.307 36.963,322.928 35.19,319.047C28.676,304.789 33.493,283.609 28.978,290.947C24.462,298.284 17.368,321 16.84,333.755C16.172,349.878 19.967,361.338 23.471,367.28C27.454,374.033 37.331,389.114 50.722,391.93C60.419,393.97 71.532,387.813 73.054,384.841C74.638,381.748 79.235,378.595 81.632,375.931C84.029,373.268 87.234,369.101 90.725,368.949C94.215,368.797 99.494,369.415 102.594,369.082C105.695,368.749 108.872,366.913 112.086,367.046C115.301,367.18 120.494,369.301 123.005,369.016C125.516,368.73 125.459,368.445 126.962,367.151C128.465,365.857 127.304,365.106 129.292,363.584C131.28,362.062 131.556,362.87 132.516,361.548C133.477,360.226 133.734,359.256 133.753,356.497C133.772,353.738 133.857,354.328 132.821,351.845C131.784,349.362 129.007,349.809 126.296,347.146C123.585,344.482 123.709,344.33 121.17,341.467C118.63,338.603 117.375,338.889 116.49,337.281C115.606,335.673 114.152,333.401 114.167,330.012C114.183,326.276 104.959,318.718 103.479,317.666C103.479,317.666 106.732,314.897 107.683,313.061C108.634,311.225 109.585,308.096 108.054,303.977C108.054,303.977 106.96,307.601 104.991,310.464C103.022,313.328 99.581,315.016 99.581,315.016C99.519,314.901 98.388,313.919 97.065,313.562C93.814,312.684 91.371,313.499 91.371,313.499C91.371,313.499 94.748,311.045 95.803,308.448C96.859,305.851 94.367,300.134 94.367,300.134C94.367,300.134 94.339,303.644 90.791,307.221C87.243,310.797 83.411,311.577 81.917,314.308C80.424,317.038 81.432,320.596 81.432,320.596C81.432,320.596 80.662,319.083 76.154,316.572C71.645,314.06 68.573,315.972 66.186,316.505C63.799,317.038 65.71,321.043 67.318,322.051C68.925,323.059 69.334,323.877 72.073,325.58C71.589,327.021 67.645,326.144 64.397,325.056C61.435,324.065 59.268,325.153 57.324,326.456C54.813,328.137 52.806,330.53 49.373,330.472Z" style="stroke:rgb(13,13,13);stroke-width:0.64px;"/>
    </g>
    <g transform="matrix(1.96167,0,0,1.96167,-85.9709,-244.897)">
        <path d="M149.106,177.935C152.72,176.516 158.11,168.556 168.36,163.78C182.062,157.396 206.535,158.641 216.589,160.472C231.385,163.167 243.707,164.085 259.506,174.097C272.206,182.145 281.221,190.966 296.596,208.619C303.57,216.625 316.037,236.54 318.923,266.647C321.928,298.001 316.531,306.355 312.316,323.176C308.101,339.998 307.511,338.021 301.691,347.627C297.075,355.246 303.965,352.156 308.374,341.616C312.784,331.077 321.898,305.246 322.268,296.993C322.896,282.95 324.834,266.726 319.048,247.331C313.877,229.993 309.951,220.618 299.126,204.995C293.153,196.375 282.092,184.463 272.724,177.148C264.39,170.641 255.793,165.797 247.104,162.364C239.703,159.44 216.77,153.547 203.56,153.213C189.707,152.862 170.051,155.987 164.946,157.227C148.843,161.138 135.094,183.434 149.106,177.935Z" style="stroke:rgb(13,13,13);stroke-width:0.85px;"/>
    </g>
    <g transform="matrix(1.96167,0,0,1.96167,-88.4556,-242.976)">
        <path d="M209.786,407.185C199.613,407.344 185.519,409.971 173.245,407.504C161.344,405.113 162.495,406.336 145.551,399.278C127.774,391.872 119.918,386.278 110.294,376.652C101.838,368.195 91.829,359.009 87.675,350.716C80.745,336.878 76.262,325.903 74.398,320.746C71.291,312.151 69.449,295.942 68.994,289.233C68.08,275.74 69.356,267.179 71.087,269.996C71.553,270.755 70.068,276.684 70.501,280.529C71.221,286.928 71.998,296.698 73.569,306.266C75.421,317.548 81.938,331.172 86.938,341.007C91.625,350.225 92.316,352.245 101.05,362.011C105.105,366.546 115.531,377.165 126.84,384.186C135.881,389.798 144.639,392.701 155.227,396.536C163.371,399.485 177.904,401.096 186.904,400.673C195.607,400.263 204.447,400.038 212.452,393.005" style="stroke:rgb(13,13,13);stroke-width:0.85px;"/>
    </g>
    <g transform="matrix(1.95159,-0.198595,0.198595,1.95159,-165.491,-214.571)">
        <path d="M136.495,389.066C136.495,389.377 134.957,388.16 134.82,388.154C132.86,388.061 131.321,384.179 130.815,383.271C129.708,381.282 127.716,373.016 128.516,367.846C128.738,366.418 129.343,361.625 130.176,361.613C130.868,361.603 132.438,364.458 133.259,365.69C134.141,367.014 135.355,370.88 135.899,372.37C136.811,374.866 137.235,376.868 137.958,381.135C138.242,382.807 138.343,384.314 137.923,385.942C137.789,386.46 136.109,388.679 136.495,389.066Z" style="fill:rgb(97,122,62);stroke:rgb(13,13,13);stroke-width:0.85px;"/>
    </g>
    <g transform="matrix(1.96167,0,0,1.96167,-84.9585,-249.538)">
        <path d="M159.078,398.506C158.393,399.191 157.595,398.962 156.594,398.562C154.681,397.797 153.139,393.4 152.77,391.467C151.807,386.422 152.367,386.39 151.865,381.152C151.676,379.18 150.858,370.809 152.118,370.219C152.737,369.929 155.338,373.496 155.554,373.759C156.961,375.471 157.412,377.954 158.358,379.943C159.235,381.788 159.273,383.838 159.805,385.786C160.486,388.279 161.301,393.665 160.548,396.399C160.231,397.554 160.238,397.346 159.078,398.506Z" style="fill:rgb(97,122,62);stroke:rgb(13,13,13);stroke-width:0.85px;"/>
    </g>
    <g transform="matrix(1.89664,0.500888,-0.500888,1.89664,124.469,-298.087)">
        <path d="M157.164,407.708C157.129,407.685 157.225,407.578 157.164,407.708C156.901,408.267 156.567,408.964 156.162,409.425C154.692,411.098 153.301,412.889 151.183,413.714C147.559,415.128 141.752,416.325 134.986,416.02C134.116,415.981 130.084,415.01 129.758,414.189C129.567,413.706 130.477,413.244 130.803,412.958C131.701,412.172 132.866,411.73 133.973,411.274C138.694,409.33 144.469,407.287 149.598,406.952C151.418,406.834 154.717,407.307 156.466,407.799C156.999,407.949 155.922,407.694 156.466,407.799C156.543,407.814 157.23,407.642 157.164,407.708Z" style="fill:rgb(97,122,62);stroke:rgb(13,13,13);stroke-width:0.85px;"/>
    </g>
    <g transform="matrix(1.96167,0,0,1.96167,-87.3327,-242.463)">
        <path d="M134.82,396.674C134.82,396.861 133.218,397.832 133.012,398.005C131.084,399.621 129.137,400.224 126.646,400.618C121.667,401.404 116.819,400.048 112.303,398.12C110.461,397.334 108.585,396.477 107.177,395.031C106.371,394.203 104.147,392.569 104.135,392.046C104.116,391.242 105.786,390.995 106.298,390.898C107.966,390.582 109.604,390.61 111.391,390.939C114.148,391.446 116.886,392.175 119.63,392.755C123.166,393.501 126.662,393.573 129.998,395.072C131.353,395.681 133.96,395.384 134.82,396.674Z" style="fill:rgb(97,122,62);stroke:rgb(13,13,13);stroke-width:0.85px;"/>
    </g>
    <g transform="matrix(1.94486,-0.256231,0.256231,1.94486,-180.727,-212.968)">
        <path d="M113.091,374.352C112.951,374.409 112.095,373.725 111.95,373.643C110.124,372.616 109.127,371.263 108.871,369.211C108.099,363.031 108.623,358.178 109.137,353.07C109.213,352.314 110.449,348.867 111.064,348.771C111.594,348.688 112.626,350.268 112.815,350.635C113.516,351.998 113.5,352.917 114.055,354.344C115.647,358.439 115.837,361.648 116.29,366.57C116.42,367.987 115.946,371.289 115.242,372.508C114.908,373.087 112.971,373.632 113.091,374.352Z" style="fill:rgb(97,122,62);stroke:rgb(13,13,13);stroke-width:0.85px;"/>
    </g>
    <g transform="matrix(1.96167,0,0,1.96167,-85.9709,-244.897)">
        <path d="M106.412,378.562C106.412,381.846 101.049,380.087 99.35,379.598C97.095,378.949 92.817,377.406 91.26,376.417C90.029,375.635 88.881,374.038 87.823,373.031C86.671,371.934 84.933,369.442 84.779,368.769C84.603,368.005 86.11,368.148 86.595,368.148C88.844,368.148 91.295,369.2 93.441,369.916C97.75,371.352 100.077,372.287 103.799,374.942C105.53,376.176 106.055,376.898 106.412,378.562Z" style="fill:rgb(97,122,62);stroke:rgb(13,13,13);stroke-width:0.85px;"/>
    </g>
    <g transform="matrix(1.93994,-0.291126,0.291126,1.93994,-187.473,-207.68)">
        <path d="M95.31,353.59C94.404,353.023 93.614,350.929 93.333,349.913C92.124,345.541 93.769,340.684 95.949,336.703C96.421,335.841 99.582,330.372 100.381,330.492C100.984,330.583 101.55,334.777 101.549,335.465C101.544,340.543 100.511,342.941 99.533,347.346C99.14,349.116 98.918,350.143 97.456,351.969C97.144,352.359 94.923,353.048 95.31,353.59Z" style="fill:rgb(97,122,62);stroke:rgb(13,13,13);stroke-width:0.85px;"/>
    </g>
    <g transform="matrix(1.92706,0.36684,-0.36684,1.92706,52.1577,-264.884)">
        <path d="M89.121,360.382C89.46,360.585 87.708,361.132 87.537,361.268C86.589,362.019 82.599,362.811 81.377,362.65C75.14,361.83 74.855,361.47 71.302,359.595C70.159,358.991 69.021,358.095 68.074,357.202C67.939,357.075 67.106,356.432 67.255,356.194C67.727,355.436 71.595,354.732 72.705,354.732C75.908,354.732 78.081,355.375 81.051,356.598C83.316,357.53 86.321,358.086 87.858,360.182" style="fill:rgb(97,122,62);stroke:rgb(13,13,13);stroke-width:0.85px;"/>
    </g>
    <g transform="matrix(1.96167,0,0,1.96167,-84.629,-248.275)">
        <path d="M163.822,398.91C163.376,399.208 162.096,397.288 161.895,397.045C160.384,395.221 161.413,392.594 162.252,390.705C163.355,388.223 163.637,387.742 164.048,387.213C166.337,384.27 166.279,384.4 167.367,383.065C169.547,380.388 172.214,379.791 172.283,379.868C172.731,380.369 172.369,382.989 171.997,384.392C171.691,385.544 170.097,390.687 169.208,392.303C168.219,394.101 168.122,396.27 166.681,397.5C165.996,398.086 164.74,398.377 164.239,399.129" style="fill:rgb(97,122,62);stroke:rgb(13,13,13);stroke-width:0.85px;"/>
    </g>
    <g transform="matrix(1.96167,0,0,1.96167,-85.9709,-244.897)">
        <path d="M75.947,341.417C75.59,341.417 75.392,341.878 75.067,342.025C73.984,342.516 71.081,341.544 69.62,340.798C68.13,340.036 67.135,339.562 65.785,338.54C64.675,337.7 62.97,335.809 62.181,334.608C61.576,333.686 60.484,331.652 60.742,331.46C61.34,331.015 64.746,331.806 66.135,332.273C70.301,333.673 74.896,336.914 75.947,341.235" style="fill:rgb(97,122,62);stroke:rgb(13,13,13);stroke-width:0.85px;"/>
    </g>
    <g transform="matrix(1.96167,0,0,1.96167,-85.9709,-244.897)">
        <path d="M85.269,335.629C85.269,335.312 83.593,334.445 83.314,334.165C82.383,333.234 82.375,330.78 82.605,329.504C83.262,325.846 83.558,325.818 84.265,322.588C84.871,319.824 85.834,315.152 86.707,315.908C87.476,316.574 89.147,321.697 89.199,322.63C89.376,325.858 89.007,327.384 88.514,330.263C88.36,331.161 88.254,332.479 87.152,334.407C87.029,334.622 85.009,335.369 85.269,335.629Z" style="fill:rgb(97,122,62);stroke:rgb(13,13,13);stroke-width:0.85px;"/>
    </g>
    <g transform="matrix(1.92479,0.378594,-0.378594,1.92479,38.2168,-253.993)">
        <path d="M65.965,312.255C65.602,313.103 61.823,312.062 61.326,311.755C57.839,309.596 54.85,306.279 53.316,302.634C53.033,301.963 51.827,297.843 52.438,297.319C53.228,296.643 57.896,299.63 58.785,300.55C61.474,303.331 63.191,304.569 65.185,307.893C65.877,309.046 67.082,310.264 65.965,312.255Z" style="fill:rgb(97,122,62);stroke:rgb(13,13,13);stroke-width:0.85px;"/>
    </g>
    <g transform="matrix(1.96167,0,0,1.96167,-85.296,-241.125)">
        <path d="M75.196,310.792C72.162,307.757 75.635,305.297 77.887,302.225C79.059,300.626 83.696,295.673 84.021,296.517C84.756,298.427 83.293,304.006 81.647,305.961C80.354,307.497 79.822,308.481 78.084,310.178C77.641,310.611 76.695,310.984 75.196,310.792C74.969,310.763 75.132,310.753 75.17,310.753" style="fill:rgb(97,122,62);stroke:rgb(13,13,13);stroke-width:0.85px;"/>
    </g>
    <g transform="matrix(1.96167,0,0,1.96167,-85.7724,-239.061)">
        <path d="M64.036,285.645C61.98,286.676 60.455,284.717 59.739,284.008C56.372,280.675 56.136,277.803 55.682,275.947C54.778,272.248 59.214,277.127 60.289,277.993C62.717,279.95 65.226,284.582 64.036,285.645Z" style="fill:rgb(97,122,62);stroke:rgb(13,13,13);stroke-width:0.85px;"/>
    </g>
    <g transform="matrix(1.96167,0,0,1.96167,-85.9709,-244.897)">
        <path d="M72.221,285.619C71.075,286.574 70.734,283.504 70.911,283.055C71.834,280.704 73.247,279.597 75.41,278.254C76.106,277.822 79.957,274.309 80.688,275.161C81.164,275.715 79.433,279.506 78.758,280.687C77.515,282.864 74.991,285.619 72.221,285.619Z" style="fill:rgb(97,122,62);stroke:rgb(13,13,13);stroke-width:0.85px;"/>
    </g>
    <g transform="matrix(1.96167,0,0,1.96167,-85.9709,-244.897)">
        <path d="M65.538,272.606C65.538,274 62.342,271.583 61.994,271.147C60.909,269.785 60.702,268.495 59.933,265.579C59.754,264.898 59.853,261.363 60.287,261.115C60.912,260.758 63.509,264.271 63.894,264.784C66.061,267.675 66.884,269.463 65.538,272.606Z" style="fill:rgb(97,122,62);stroke:rgb(13,13,13);stroke-width:0.85px;"/>
    </g>
    <g transform="matrix(1.96167,0,0,1.96167,-84.9585,-249.538)">
        <path d="M162.988,405.367C163.227,405.127 161.763,404.128 161.657,404.036C160.803,403.288 160.254,402.227 159.727,401.234C158.047,398.069 156.908,390.496 155.856,387.094" style="fill:none;stroke:rgb(13,13,13);stroke-width:0.85px;"/>
    </g>
    <g transform="matrix(1.92627,0.370982,-0.370982,1.92627,74.0737,-290.12)">
        <path d="M163.308,405.498C163.308,405.751 162.394,405.752 162.208,405.769C160.834,405.899 159.537,406.15 158.207,406.525C156.084,407.125 154.199,408.142 152.145,408.924C150.696,409.475 141.504,411.634 140.289,412.628" style="fill:none;stroke:rgb(13,13,13);stroke-width:0.85px;"/>
    </g>
    <g transform="matrix(1.95159,-0.198595,0.198595,1.95159,-165.491,-214.571)">
        <path d="M141.12,396.288C141.158,396.351 140.873,396.118 140.816,396.058C140.6,395.828 140.45,395.592 140.299,395.318C139.805,394.425 139.119,393.675 138.582,392.812C136.718,389.822 135.054,386.636 134.212,383.191C133.926,382.021 133.631,380.851 133.472,379.658C133.421,379.276 133.363,378.897 133.316,378.516C133.304,378.411 133.235,377.752 133.3,377.818" style="fill:none;stroke:rgb(13,13,13);stroke-width:0.85px;"/>
    </g>
    <g transform="matrix(1.96167,0,0,1.96167,-87.3327,-242.463)">
        <path d="M139.494,395.729C138.718,396.039 137.106,395.804 136.191,396C133.514,396.574 130.47,397.422 127.714,397.331C126.746,397.299 125.786,397.492 124.822,397.43C121.754,397.233 119.431,396.614 119.431,396.991" style="fill:none;stroke:rgb(13,13,13);stroke-width:0.85px;"/>
    </g>
    <g transform="matrix(1.94486,-0.256231,0.256231,1.94486,-180.727,-212.968)">
        <path d="M115.528,381.62C115.528,379.92 113.906,377.807 113.534,376.114C112.764,372.596 112.449,368.878 112.449,365.279C112.449,363.964 112.537,362.655 112.648,361.346C112.666,361.136 112.597,360.051 112.826,359.994" style="fill:none;stroke:rgb(13,13,13);stroke-width:0.85px;"/>
    </g>
    <g transform="matrix(1.96167,0,0,1.96167,-85.9709,-244.897)">
        <path d="M115.052,381.354C115.212,381.541 113.361,381.048 113.091,380.967C111.79,380.576 110.597,380.238 109.336,379.715C106.138,378.387 102.732,377.524 99.577,376.114C99.063,375.884 97.343,375.025 96.243,374.74" style="fill:none;stroke:rgb(13,13,13);stroke-width:0.85px;"/>
    </g>
    <g transform="matrix(1.93994,-0.291126,0.291126,1.93994,-187.473,-207.68)">
        <path d="M96.265,361.789C96.163,361.994 96.095,361.293 96.066,361.113C95.982,360.591 95.861,360.089 95.745,359.573C95.413,358.096 95.39,356.428 95.39,354.92C95.39,350.444 95.388,344.342 97.617,340.329" style="fill:none;stroke:rgb(13,13,13);stroke-width:0.85px;"/>
    </g>
    <g transform="matrix(1.92706,0.36684,-0.36684,1.92706,52.1577,-264.884)">
        <path d="M95.213,362.055C92.035,360.465 88.167,360.127 84.513,360.127C84.029,360.127 77.875,359.87 75.841,358.392" style="fill:none;stroke:rgb(13,13,13);stroke-width:0.85px;"/>
    </g>
    <g transform="matrix(1.96167,0,0,1.96167,-84.9585,-249.538)">
        <path d="M164.312,405.223C163.283,404.537 163.594,403.103 163.687,402.067C163.914,399.52 164.349,396.928 164.843,394.42C164.919,394.035 165.211,391.401 165.635,391.316" style="fill:none;stroke:rgb(13,13,13);stroke-width:0.85px;"/>
    </g>
    <g transform="matrix(1.96167,0,0,1.96167,-85.9709,-244.897)">
        <path d="M83.728,344.887C83.87,345.03 82.278,344.448 82.019,344.343C80.796,343.849 79.535,343.212 78.42,342.517C75.196,340.51 69.089,338.832 66.821,335.657" style="fill:none;stroke:rgb(13,13,13);stroke-width:0.85px;"/>
    </g>
    <g transform="matrix(1.96167,0,0,1.96167,-85.9709,-244.897)">
        <path d="M84.79,343.825C85.445,343.825 85.269,340.673 85.269,340.264C85.269,337.544 85.54,334.825 85.54,332.068C85.54,331.296 85.83,325.966 86.26,325.364" style="fill:none;stroke:rgb(13,13,13);stroke-width:0.85px;"/>
    </g>
    <g transform="matrix(1.92479,0.378594,-0.378594,1.92479,38.2168,-253.993)">
        <path d="M72.904,317.759C72.904,317.83 72.408,317.431 72.361,317.396C71.936,317.084 71.459,316.882 71.014,316.606C69.652,315.762 68.607,314.38 67.247,313.473C63.871,311.222 61.095,309.468 58.376,305.236" style="fill:none;stroke:rgb(13,13,13);stroke-width:0.85px;"/>
    </g>
    <g transform="matrix(1.96167,0,0,1.96167,-85.296,-241.125)">
        <path d="M73.215,317.694C73.215,312.528 76.545,308.715 79.106,304.577" style="fill:none;stroke:rgb(13,13,13);stroke-width:0.85px;"/>
    </g>
    <g transform="matrix(1.96167,0,0,1.96167,-85.7724,-239.061)">
        <path d="M68.037,290.812C67.927,291.119 65.814,287.724 65.538,287.29C64.577,285.779 63.334,284.993 62.316,283.508C61.956,282.983 61.149,282.046 60.216,280.28" style="fill:none;stroke:rgb(13,13,13);stroke-width:0.85px;"/>
    </g>
    <g transform="matrix(1.96167,0,0,1.96167,-85.9709,-244.897)">
        <path d="M69.202,292.547C69.202,288.902 72.139,284.155 75.092,282.11" style="fill:none;stroke:rgb(13,13,13);stroke-width:0.85px;"/>
    </g>
    <g transform="matrix(1.96167,0,0,1.96167,-85.9709,-244.897)">
        <path d="M68.179,276.322C66.241,275.837 65.035,271.836 64.308,270.301C64.084,269.829 63.818,268.789 62.948,267.441" style="fill:none;stroke:rgb(13,13,13);stroke-width:0.85px;"/>
    </g>
    <g transform="matrix(1.96167,0,0,1.96167,-85.9709,-244.897)">
        <path d="M144.476,389.765C145.226,390.891 142.055,389.484 141.802,389.21C139.743,386.981 141.008,381.271 143.82,380.87C146.758,380.45 148.018,386.031 146.608,387.971C146.355,388.319 144.628,390.299 144.476,389.765Z" style="fill:rgb(173,199,146);stroke:rgb(13,13,13);stroke-width:0.85px;"/>
    </g>
    <g transform="matrix(1.96167,0,0,1.96167,-85.9709,-244.897)">
        <path d="M113.605,386.536C114.219,386.966 112.307,388.28 110.488,388.421C108.77,388.555 104.159,387.829 105.361,384.222C106.265,381.51 115.841,382.807 113.605,386.536Z" style="fill:rgb(173,199,146);stroke:rgb(13,13,13);stroke-width:0.85px;"/>
    </g>
    <g transform="matrix(1.96167,0,0,1.96167,-86.2624,-244.606)">
        <path d="M73.48,330.629C73.48,330.738 72.12,331.162 71.738,331.257C69.325,331.861 65.66,329.778 67.216,326.924C68.105,325.294 72.113,326.832 73.191,328.27C74.017,329.372 73.48,329.808 73.48,330.629Z" style="fill:rgb(173,199,146);stroke:rgb(13,13,13);stroke-width:0.85px;"/>
    </g>
    <g transform="matrix(1.96167,0,0,1.96167,-85.5452,-238.441)">
        <path d="M73.171,292.311C73.041,291.876 74.098,293.257 74.377,293.212C76.399,292.88 76.845,292.083 77.573,291.299C78.574,290.22 79.091,287.53 77.556,286.803C74.498,285.354 70.576,290.659 73.171,292.311Z" style="fill:rgb(173,199,146);stroke:rgb(13,13,13);stroke-width:0.85px;"/>
    </g>
    <g transform="matrix(1.96167,0,0,1.96167,-87.2315,-243.964)">
        <path d="M79.098,267.4C78.808,266.083 76.782,265.884 75.143,266.332C73.98,266.65 71.787,268.757 73.43,269.964C75.343,271.37 79.684,270.059 79.098,267.4Z" style="fill:rgb(173,199,146);stroke:rgb(13,13,13);stroke-width:0.85px;"/>
    </g>
    <g transform="matrix(1.96167,0,0,1.96167,-85.9709,-244.897)">
        <path d="M148.983,399.434C148.983,399.812 148.608,398.774 148.394,398.462C147.988,397.871 147.556,397.344 147.215,396.694C146.073,394.512 145.429,394.063 144.957,391.612C144.859,391.102 143.848,388.024 144.401,388.024" style="fill:none;stroke:rgb(13,13,13);stroke-width:0.85px;"/>
    </g>
    <g transform="matrix(1.96167,0,0,1.96167,-85.9709,-244.897)">
        <path d="M121.463,386.818C121.56,386.896 120.856,386.738 120.459,386.738C119.726,386.738 118.795,386.716 118.086,386.547C115.93,386.034 114.875,385.63 112.656,385.63" style="fill:none;stroke:rgb(13,13,13);stroke-width:0.85px;"/>
    </g>
    <g transform="matrix(1.96167,0,0,1.96167,-85.9709,-244.897)">
        <path d="M84.307,343.555C83.716,343.752 82.014,341.648 81.727,341.118C80.165,338.234 78.601,334.858 76.089,332.66C75.714,332.331 72.028,328.801 72.028,329.554" style="fill:none;stroke:rgb(13,13,13);stroke-width:0.85px;"/>
    </g>
    <g transform="matrix(1.96167,0,0,1.96167,-85.2536,-238.733)">
        <path d="M69.687,300.181C69.468,299.376 70.293,297.991 70.563,297.234C71.564,294.432 72.689,293.325 74.142,290.903" style="fill:none;stroke:rgb(13,13,13);stroke-width:0.85px;"/>
    </g>
    <g transform="matrix(1.96167,0,0,1.96167,-85.9709,-244.897)">
        <path d="M69.639,271.764C71.497,270.603 70.975,269.136 73.539,269.136" style="fill:none;stroke:rgb(13,13,13);stroke-width:0.85px;"/>
    </g>
    <g transform="matrix(1.96167,0,0,1.96167,-85.9709,-244.897)">
        <path d="M143.136,388.55C143.306,388.55 143.312,388.256 143.443,388.166C143.933,387.829 144.769,387.684 145.243,388.158" style="fill:none;stroke:rgb(13,13,13);stroke-width:0.85px;"/>
    </g>
    <g transform="matrix(1.96167,0,0,1.96167,-85.9709,-244.897)">
        <path d="M112.233,384.779C112.233,384.77 112.196,384.9 112.191,384.941C112.178,385.048 112.155,385.166 112.155,385.275C112.155,385.509 112.27,386.561 112.602,386.561" style="fill:none;stroke:rgb(13,13,13);stroke-width:0.85px;"/>
    </g>
    <g transform="matrix(1.96167,0,0,1.96167,-85.9709,-244.897)">
        <path d="M71.772,330.193C71.772,329.911 71.451,329.65 71.516,329.195C71.534,329.067 71.638,328.878 71.732,328.796C71.75,328.78 71.858,328.6 71.858,328.633" style="fill:none;stroke:rgb(13,13,13);stroke-width:0.85px;"/>
    </g>
    <g transform="matrix(1.96167,0,0,1.96167,-86.0509,-244.556)">
        <path d="M74.045,293.529C74.424,293.529 75.204,294.043 75.204,294.469" style="fill:none;stroke:rgb(13,13,13);stroke-width:0.85px;"/>
    </g>
    <g transform="matrix(1.96167,0,0,1.96167,-85.5641,-244.824)">
        <path d="M73.743,268.524C73.743,268.524 73.914,268.721 73.946,268.804C74.003,268.958 74.057,269.573 73.852,269.655" style="fill:none;stroke:rgb(13,13,13);stroke-width:0.85px;"/>
    </g>
    <g transform="matrix(1.94526,-0.25315,0.25315,1.94526,-121.057,-192.805)">
        <path d="M187.565,163.46C189.56,161.797 195.894,167.958 196.964,169.067C198.554,170.713 203.675,178.577 204.822,181.119C206.572,184.998 208.088,193.239 207.486,193.703C207.04,194.046 201.425,189.021 199.624,186.937C197.159,184.083 195.707,183.512 192.221,177.402C190.709,174.753 187.51,171.073 187.276,167.359C187.22,166.465 187.565,163.06 187.565,163.46Z" style="fill:rgb(97,122,62);stroke:rgb(13,13,13);stroke-width:0.85px;"/>
    </g>
    <g transform="matrix(1.96167,0,0,1.96167,-85.9709,-244.897)">
        <path d="M185.241,150.844C183.167,148.205 188.184,144.601 190.242,143.228C195.751,139.553 199.344,137.619 204.719,136.574C206.733,136.182 214.657,134.328 216.08,135.277C216.69,135.683 208.625,141.737 207.573,142.63C207.085,143.044 201.042,146.618 200.5,146.959C197.944,148.571 194.719,151.012 189.909,151.469C188.528,151.601 186.565,151.285 185.241,150.844Z" style="fill:rgb(97,122,62);stroke:rgb(13,13,13);stroke-width:0.85px;"/>
    </g>
    <g transform="matrix(1.9381,-0.303167,0.303167,1.9381,-123.744,-172.437)">
        <path d="M216.979,163.362C218.738,162.658 221.256,165.181 222.313,166.121C227.078,170.357 229.417,175.736 230.607,181.924C231.101,184.49 232.162,194.183 231.18,194.617C230.192,195.053 226.626,191.376 225.329,189.044C222.276,183.552 222.363,181.443 220.281,176.916C219.226,174.622 216.14,169.921 216.75,167.526C217.014,166.491 217.463,163.548 216.979,163.362Z" style="fill:rgb(97,122,62);stroke:rgb(13,13,13);stroke-width:0.85px;"/>
    </g>
    <g transform="matrix(1.64746,1.0649,-1.0649,1.64746,150.73,-424.778)">
        <path d="M217.161,150.452C215.791,148.397 218.693,144.588 220.44,143.266C226.813,138.444 228.519,136.474 233.908,133.976C235.203,133.375 241.159,130.765 241.97,131.686C242.837,132.67 237.975,138.886 236.997,139.762C232.188,144.073 228.567,147.92 223.358,149.919C222.297,150.327 218.119,151.218 217.161,150.452Z" style="fill:rgb(97,122,62);stroke:rgb(13,13,13);stroke-width:0.85px;"/>
    </g>
    <g transform="matrix(1.69833,-0.98174,-0.98174,-1.69833,116.806,526.813)">
        <path d="M220.84,152.893C220.84,152.45 222.292,150.946 222.761,150.648C224.806,149.346 227.565,149.215 230.195,149.5C231.138,149.602 232.079,149.583 233.023,149.668C234.17,149.77 235.348,149.665 236.495,149.626C238.027,149.573 239.555,149.482 241.087,149.43C242.355,149.386 244.079,148.849 245.253,149.513C245.471,149.637 243.519,151.658 242.955,152.034C240.863,153.426 240.82,153.474 238.385,154.078C231.891,155.689 226.217,156.473 223.756,155.089C222.136,154.177 221.928,154.117 220.84,152.893Z" style="fill:rgb(97,122,62);stroke:rgb(13,13,13);stroke-width:0.85px;"/>
    </g>
    <g transform="matrix(1.91076,-0.444012,0.444012,1.91076,-145.038,-120.279)">
        <path d="M252.729,172.777C255.581,173.133 256.241,173.34 257.148,175.064C258.959,178.511 259.058,185.046 259.838,188.589C260.109,189.819 260.18,198.364 259.172,198.45C257.365,198.604 253.666,192.426 251.939,184.469C251.44,182.168 250.747,179.901 251.013,176.202C251.064,175.481 252.856,172.665 252.729,172.777Z" style="fill:rgb(97,122,62);stroke:rgb(13,13,13);stroke-width:0.85px;"/>
    </g>
    <g transform="matrix(1.96167,0,0,1.96167,-85.9709,-244.897)">
        <path d="M252.987,160.926C254.067,158.002 257.831,155.348 261.717,154.946C263.859,154.724 269.957,154.392 272.588,154.518C274.753,154.622 280.589,154.531 280.665,155.409C280.793,156.895 268.182,161.015 266.54,161.294C262.019,162.065 255.898,163.609 252.987,160.926Z" style="fill:rgb(97,122,62);stroke:rgb(13,13,13);stroke-width:0.85px;"/>
    </g>
    <g transform="matrix(1.94948,-0.2183,0.2183,1.94948,-124.589,-177.169)">
        <path d="M277.377,189.738C277.382,189.717 278.822,190.876 279.099,191.051C280.238,191.767 281.499,194.129 281.863,195.561C283.122,200.508 282.809,204.274 282.322,208.821C282.178,210.159 281.625,214.133 280.64,214.197C280.137,214.23 277.837,211.766 276.996,209.566C275.148,204.737 275.117,202.826 274.489,200.821C273.874,198.855 273.828,196.378 274.195,194.485C274.533,192.743 275.348,190.973 277.377,189.738Z" style="fill:rgb(97,122,62);stroke:rgb(13,13,13);stroke-width:0.85px;"/>
    </g>
    <g transform="matrix(1.92848,0.359324,-0.359324,1.92848,-10.7613,-339.847)">
        <path d="M284.222,181.543C284.518,180.354 288.142,177.89 295.764,180.262C299.786,181.514 302.812,182.52 305.505,184.005C307.845,185.294 312.614,188.307 312.255,189.195C311.873,190.141 304.458,190.143 303.156,189.947C302.681,189.876 297.989,188.974 297.504,188.839C294.923,188.123 291.935,187.145 289.856,186.226C287.8,185.317 283.823,183.146 284.222,181.543Z" style="fill:rgb(97,122,62);stroke:rgb(13,13,13);stroke-width:0.85px;"/>
    </g>
    <g transform="matrix(1.94207,0.276576,-0.276576,1.94207,-19.7371,-321.788)">
        <path d="M301.888,223C303.743,225.135 303.457,227.873 302.511,230.1C301.255,233.057 298.934,235.707 296.818,239.306C296.337,240.125 295.173,242.681 293.669,244.258C292.429,245.558 292.175,244.006 292.051,242.534C291.817,239.748 292.091,237.204 292.544,234.28C292.863,232.217 295.405,226.452 297.543,224.538C298.678,223.523 300.42,223 301.888,223Z" style="fill:rgb(97,122,62);stroke:rgb(13,13,13);stroke-width:0.85px;"/>
    </g>
    <g transform="matrix(1.94683,0.240803,-0.240803,1.94683,-31.7499,-316.196)">
        <path d="M312.405,217.552C312.817,216.522 318.081,217.816 318.912,218.176C323.4,220.123 327.89,223.347 330.059,227.168C330.569,228.068 332.29,230.943 331.667,231.976C331.223,232.712 322.85,229.402 321.626,228.585C317.549,225.866 312.187,222.408 312.405,217.552Z" style="fill:rgb(97,122,62);stroke:rgb(13,13,13);stroke-width:0.85px;"/>
    </g>
    <g transform="matrix(1.81258,-0.750125,0.750125,1.81258,-223.788,30.9474)">
        <path d="M312.315,255.649C312.315,257.202 312.269,259.598 311.486,261.005C309.219,265.079 307.459,267.195 304.082,269.981C300.997,272.527 294.887,275.765 294.935,273.771C294.955,272.933 297.634,267.47 298.088,266.763C301.737,261.083 300.577,263.329 303.502,259.422C304.735,257.774 306.531,256.525 308.846,255.751C309.077,255.674 312.315,255.738 312.315,255.649Z" style="fill:rgb(97,122,62);stroke:rgb(13,13,13);stroke-width:0.85px;"/>
    </g>
    <g transform="matrix(1.89584,0.503914,-0.503914,1.89584,62.0439,-389.998)">
        <path d="M322.875,251.737C327.134,250.159 326.964,249.807 330.617,250.651C332.069,250.986 336.909,253.247 338.579,254.562C340.243,255.873 343.67,258.568 343.417,259.355C343.157,260.164 335.726,258.63 332.653,257.794C331.329,257.433 326.829,255.982 325.114,254.814C323.649,253.816 323.366,252.031 322.875,251.737Z" style="fill:rgb(97,122,62);stroke:rgb(13,13,13);stroke-width:0.85px;"/>
    </g>
    <g transform="matrix(1.92703,-0.367012,0.367012,1.92703,-180.469,-113.323)">
        <path d="M317.645,287.228C318.771,286.242 318.631,290.646 316.514,292.665C313.237,295.792 307.89,299.095 303.704,300.141C302.933,300.334 299.108,301.447 298.612,300.408C298.13,299.397 304.219,291.032 310.437,288.773C312.426,288.051 315.667,286.086 317.645,287.228Z" style="fill:rgb(97,122,62);stroke:rgb(13,13,13);stroke-width:0.85px;"/>
    </g>
    <g transform="matrix(1.93748,0.307115,-0.307115,1.93748,8.87422,-336.082)">
        <path d="M325.465,284.143C331.232,285.254 332.125,287.655 335.663,290.784C336.885,291.864 338.795,296.938 338.21,297.481C337.76,297.898 334.435,296.345 333.565,295.728C330.453,293.522 329.834,293.546 326.956,290.799C324.859,288.797 325.3,286.618 324.809,283.995" style="fill:rgb(97,122,62);stroke:rgb(13,13,13);stroke-width:0.85px;"/>
    </g>
    <g transform="matrix(1.91723,-0.41515,0.41515,1.91723,-202.15,-96.1427)">
        <path d="M311.055,315.344C311.572,316.552 311.011,317.167 310.262,317.955C307.758,320.59 304.803,320.492 301.137,321.274C300.511,321.408 295.314,322.511 295.206,321.883C295.109,321.317 297.024,319.549 297.562,318.959C299.381,316.967 300.952,316.054 304.438,314.829C305.4,314.491 311.055,313.884 311.055,315.344Z" style="fill:rgb(97,122,62);stroke:rgb(13,13,13);stroke-width:0.85px;"/>
    </g>
    <g transform="matrix(1.94578,0.249168,-0.249168,1.94578,-1.7442,-319.081)">
        <path d="M320.971,316.517C323.426,318.35 325.444,323.239 325.621,325.618C325.698,326.648 325.633,331.197 325.017,331.369C324.843,331.418 322.307,328.328 321.616,327.123C320.082,324.446 318.757,322.787 318.757,319.635C318.757,318.553 318.583,316.872 320.971,316.517Z" style="fill:rgb(97,122,62);stroke:rgb(13,13,13);stroke-width:0.85px;"/>
    </g>
    <g transform="matrix(1.96167,0,0,1.96167,-85.1934,-244.897)">
        <path d="M306.092,334.321C306.092,335.044 306.692,336.623 305.381,337.925C302.879,340.41 300.896,341.575 297.647,342.712C297.04,342.925 293.774,343.687 293.48,343.331C293.077,342.843 294.905,339.524 295.132,339.222C296.975,336.765 297.568,336.538 300.674,334.773C303.003,333.45 304.438,333.447 305.572,334.077C305.84,334.227 305.829,334.321 306.092,334.321Z" style="fill:rgb(97,122,62);stroke:rgb(13,13,13);stroke-width:0.85px;"/>
    </g>
    <g transform="matrix(1.96167,0,0,1.96167,-85.9709,-244.897)">
        <path d="M304.685,223.989C307.096,223.937 307.55,227.957 307.466,228.926C306.979,234.535 306.475,236.589 305.958,238.983C305.664,240.345 303.769,247.506 302.86,247.561C302.022,247.611 300.756,244.776 300.507,243.278C299.926,239.788 299.944,239.604 300.052,236.874C300.125,235.011 300.343,233.529 300.393,232.353C300.469,230.519 300.881,229.073 301.282,226.657C301.395,225.979 302.499,224.677 302.971,224.458C304.913,223.555 303.682,224.178 304.685,223.989C304.79,223.969 304.63,223.928 304.623,223.934" style="fill:rgb(97,122,62);stroke:rgb(13,13,13);stroke-width:0.85px;"/>
    </g>
    <g transform="matrix(1.86797,0.599033,-0.599033,1.86797,39.0838,-390.196)">
        <path d="M271.956,169.271C271.956,167.608 274.155,166.547 275.445,166.322C278.346,165.817 278.956,165.91 282.889,166.322C284.019,166.44 286.218,166.706 287.986,167.334C289.108,167.734 291.464,168.166 291.644,168.964C291.827,169.781 287.061,171.18 286.241,171.238C280.89,171.615 278.962,172.26 275.5,171.409C274.564,171.179 271.506,170.531 271.956,169.271Z" style="fill:rgb(97,122,62);stroke:rgb(13,13,13);stroke-width:0.85px;"/>
    </g>
    <g transform="matrix(1.94526,-0.25315,0.25315,1.94526,-121.057,-192.805)">
        <path d="M177.457,156.809C178.411,157.763 180.322,158.112 181.489,158.853C185.283,161.265 188.599,164.007 191.639,167.339C194.649,170.639 195.717,171.907 197.71,175.894C198.623,177.721 200.325,179.946 201.409,182.7" style="fill:none;stroke:rgb(13,13,13);stroke-width:0.85px;"/>
    </g>
    <g transform="matrix(1.96167,0,0,1.96167,-85.9709,-244.897)">
        <path d="M178.241,155.815C178.353,155.589 179.466,155.279 179.753,154.933C182.747,151.307 187.191,148.764 191.415,146.699C193.311,145.772 195.239,144.912 197.127,143.969C197.292,143.886 198.442,143.352 199.761,142.738" style="fill:none;stroke:rgb(13,13,13);stroke-width:0.85px;"/>
    </g>
    <g transform="matrix(1.9381,-0.303167,0.303167,1.9381,-123.744,-172.437)">
        <path d="M207.977,155.955C209.146,155.224 212.887,159.105 213.535,159.679C218.775,164.331 223.711,173.284 225.704,180.24" style="fill:none;stroke:rgb(13,13,13);stroke-width:0.85px;"/>
    </g>
    <g transform="matrix(1.64746,1.0649,-1.0649,1.64746,150.73,-424.778)">
        <path d="M210.476,157.822C210.7,156.406 214.609,153.657 216.005,152.294C218.948,149.421 221.581,147.32 224.833,144.865C226.414,143.671 227.922,142.376 229.467,141.14C230.02,140.697 230.61,140.32 231.049,139.754C231.146,139.628 231.782,138.895 231.609,139.068" style="fill:none;stroke:rgb(13,13,13);stroke-width:0.85px;"/>
    </g>
    <g transform="matrix(1.62308,-1.1017,-1.1017,-1.62308,154.589,539.716)">
        <path d="M210.455,154.148C210.455,153.279 213.374,153.256 213.899,153.182C216.361,152.837 218.906,153.133 221.389,152.888C222.61,152.768 228.464,152.554 230.821,152.319" style="fill:none;stroke:rgb(13,13,13);stroke-width:0.85px;"/>
    </g>
    <g transform="matrix(1.91076,-0.444012,0.444012,1.91076,-145.038,-120.279)">
        <path d="M246.127,163.726C247.17,163.726 248.736,166.984 249.319,167.647C251.985,170.681 253.764,174.5 254.793,178.401C255.304,180.341 254.971,183.876 255.92,185.679" style="fill:none;stroke:rgb(13,13,13);stroke-width:0.85px;"/>
    </g>
    <g transform="matrix(1.96167,0,0,1.96167,-85.9709,-244.897)">
        <path d="M247.751,163.754C251.431,161.412 255.279,160.711 259.315,159.119C260.668,158.586 262.017,158.277 263.459,158.097C263.589,158.081 265.545,157.968 265.167,158.195" style="fill:none;stroke:rgb(13,13,13);stroke-width:0.85px;"/>
    </g>
    <g transform="matrix(1.94948,-0.2183,0.2183,1.94948,-124.589,-177.169)">
        <path d="M277.409,183.568C277.409,188.086 277.387,192.638 278.148,197.106C278.426,198.743 279.362,200.755 279.362,202.357" style="fill:none;stroke:rgb(13,13,13);stroke-width:0.85px;"/>
    </g>
    <g transform="matrix(1.92848,0.359324,-0.359324,1.92848,-10.7613,-339.847)">
        <path d="M277.508,182.797C277.128,182.353 278.661,182.205 278.886,182.173C280.87,181.89 282.906,181.577 284.924,181.631C288.964,181.741 296.428,182.214 299.591,185.061" style="fill:none;stroke:rgb(13,13,13);stroke-width:0.85px;"/>
    </g>
    <g transform="matrix(1.94207,0.276576,-0.276576,1.94207,-19.7371,-321.788)">
        <path d="M303.119,213.187C303.119,218.391 302.083,222.578 299.559,227.234C298.578,229.043 297.92,231.722 296.556,233.256" style="fill:none;stroke:rgb(13,13,13);stroke-width:0.85px;"/>
    </g>
    <g transform="matrix(1.94683,0.240803,-0.240803,1.94683,-31.7499,-316.196)">
        <path d="M304.71,214.385C305.525,214.385 307.204,215.609 308.008,215.928C311.656,217.373 315.717,218.99 318.787,221.458C320.07,222.489 320.287,222.271 321.533,223.339C322.772,224.4 324.79,225.802 324.79,225.63" style="fill:none;stroke:rgb(13,13,13);stroke-width:0.85px;"/>
    </g>
    <g transform="matrix(1.86612,0.604747,-0.604747,1.86612,106.058,-306.934)">
        <path d="M312.405,217.552C312.817,216.522 318.115,217.744 318.912,218.176C322.031,219.866 325.014,221.642 327.634,225.169C328.511,226.349 330.373,229.868 330.071,230.356C329.65,231.037 322.29,228.087 321.065,227.27C316.988,224.55 312.187,222.408 312.405,217.552Z" style="fill:rgb(97,122,62);stroke:rgb(13,13,13);stroke-width:0.85px;"/>
    </g>
    <g transform="matrix(1.86612,0.604747,-0.604747,1.86612,106.058,-306.934)">
        <path d="M304.71,214.385C305.525,214.385 307.204,215.609 308.008,215.928C311.656,217.373 315.717,218.99 318.787,221.458C320.07,222.489 320.287,222.271 321.533,223.339C322.772,224.4 323.275,224.81 323.275,224.639" style="fill:none;stroke:rgb(13,13,13);stroke-width:0.85px;"/>
    </g>
    <g transform="matrix(1.81258,-0.750125,0.750125,1.81258,-224.507,31.2447)">
        <path d="M316.786,246.959C316.786,249.416 314.704,252.297 313.439,254.277C310.727,258.52 307.624,263.522 303.414,266.437" style="fill:none;stroke:rgb(13,13,13);stroke-width:0.85px;"/>
    </g>
    <g transform="matrix(1.89584,0.503914,-0.503914,1.89584,62.0439,-389.998)">
        <path d="M316.999,247.024C318.147,247.713 318.79,248.994 319.821,249.847C321.301,251.072 324.07,251.954 325.941,252.308C327.24,252.554 328.545,252.675 329.813,253.047C331.616,253.575 333.472,254.384 333.067,254.222" style="fill:none;stroke:rgb(13,13,13);stroke-width:0.85px;"/>
    </g>
    <g transform="matrix(1.92703,-0.367012,0.367012,1.92703,-181.233,-113.177)">
        <path d="M322.036,278.711C322.036,284.597 316.715,288.158 312.67,291.487C311.564,292.398 308.394,293.777 306.761,294.645" style="fill:none;stroke:rgb(13,13,13);stroke-width:0.85px;"/>
    </g>
    <g transform="matrix(1.93748,0.307115,-0.307115,1.93748,8.10632,-336.204)">
        <path d="M321.773,280.976C325.389,283.236 326.672,287.832 330.928,289.657C331.803,290.032 332.538,290.858 333.614,291.443" style="fill:none;stroke:rgb(13,13,13);stroke-width:0.85px;"/>
    </g>
    <g transform="matrix(1.91723,-0.41515,0.41515,1.91723,-202.91,-95.9782)">
        <path d="M318.854,308.881C316.02,313.133 309.54,316.66 304.981,317.855" style="fill:none;stroke:rgb(13,13,13);stroke-width:0.85px;"/>
    </g>
    <g transform="matrix(1.94578,0.249168,-0.249168,1.94578,-2.51539,-319.179)">
        <path d="M317.369,311.168C317.994,311.57 318.868,313.174 319.001,313.841C319.407,315.87 320.51,317.675 320.994,319.671C321.201,320.528 321.462,321.368 321.702,322.21C321.733,322.32 322.292,323.629 322.292,323.14" style="fill:none;stroke:rgb(13,13,13);stroke-width:0.85px;"/>
    </g>
    <g transform="matrix(1.96167,0,0,1.96167,-85.9709,-244.897)">
        <path d="M311.977,330.638C310.43,330.91 305.305,335.653 300.465,338.24" style="fill:none;stroke:rgb(13,13,13);stroke-width:0.85px;"/>
    </g>
    <g transform="matrix(1.97018,-0.265742,0.265742,1.97018,-125.871,-193.896)">
        <path d="M191.609,160.895C191.997,160.032 192.629,159.477 194.336,159.691C196.012,159.9 200.084,162.264 198.039,164.152C196.63,165.453 194.683,164.593 193.369,163.904C192.616,163.51 191.018,162.213 191.609,160.895Z" style="fill:rgb(173,199,146);stroke:rgb(13,13,13);stroke-width:0.84px;"/>
    </g>
    <g transform="matrix(1.9381,-0.303167,0.303167,1.9381,-126.644,-165.22)">
        <path d="M238.858,167.677C238.445,166.85 240.424,168.001 240.852,168.184C242.503,168.892 243.699,173.049 242.162,174.726C240.883,176.122 238.489,174.118 237.362,172.198C236.726,171.117 237.292,167.436 238.858,167.677Z" style="fill:rgb(173,199,146);stroke:rgb(13,13,13);stroke-width:0.85px;"/>
    </g>
    <g transform="matrix(1.96167,0,0,1.96167,-85.9709,-244.897)">
        <path d="M301.568,199.675C303.023,197.959 304.515,198.27 305.592,198.494C307.641,198.921 310.112,200.009 309.974,202.411C309.847,204.639 306.523,204.985 304.766,204.217C303.418,203.627 301.663,201.763 301.663,200.371" style="fill:rgb(173,199,146);stroke:rgb(13,13,13);stroke-width:0.85px;"/>
    </g>
    <g transform="matrix(1.72284,0.93807,-0.93807,1.72284,221.463,-485.295)">
        <path d="M315.526,260.016C318.148,260.419 317.832,263.564 316.565,265.423C316.041,266.191 315.354,267.131 314.227,266.88C313.421,266.701 313.033,265.865 312.806,265.224C312.175,263.445 313.282,260.016 315.526,260.016Z" style="fill:rgb(173,199,146);stroke:rgb(13,13,13);stroke-width:0.85px;"/>
    </g>
    <g transform="matrix(1.99779,0,0,1.96167,-98.1956,-240.176)">
        <path d="M323.834,302.469C323.385,302.095 325.629,302.038 326.059,302.276C327.625,303.147 329.014,306.564 327.318,307.951C325.649,309.317 323.516,305.915 323.169,304.594C323.063,304.191 322.994,302.469 323.834,302.469Z" style="fill:rgb(173,199,146);stroke:rgb(13,13,13);stroke-width:0.84px;"/>
    </g>
    <g transform="matrix(1.96167,0,0,1.96167,-86.1795,-243.952)">
        <path d="M304.885,352.132C304.973,351.609 306.121,351.784 306.44,352.132C307.529,353.319 307.52,356.878 305.723,357.577C304.377,358.101 303.074,356.781 303.014,354.021C302.983,352.57 304.738,351.158 304.885,352.132Z" style="fill:rgb(173,199,146);stroke:rgb(13,13,13);stroke-width:0.85px;"/>
    </g>
    <g transform="matrix(1.94406,-0.262219,0.262219,1.94406,-120.223,-190.444)">
        <path d="M180.207,157.813C180.496,157.331 182.248,157.73 182.704,157.765C184.578,157.909 186.618,158.542 188.384,159.205C188.99,159.432 190.212,159.665 190.728,160.066C191.281,160.496 191.618,160.734 192.263,161.016C192.402,161.077 193.312,161.418 193.245,161.531" style="fill:none;stroke:rgb(13,13,13);stroke-width:0.85px;"/>
    </g>
    <g transform="matrix(1.9381,-0.303167,0.303167,1.9381,-126.644,-165.22)">
        <path d="M232.502,159.09C235.466,160.943 237.024,163.49 238.507,166.621C238.946,167.547 238.763,168.652 239.482,169.371" style="fill:none;stroke:rgb(13,13,13);stroke-width:0.85px;"/>
    </g>
    <g transform="matrix(1.96167,0,0,1.96167,-85.9709,-244.897)">
        <path d="M292.113,198.083C292.247,197.616 293.868,197.946 294.201,197.969C296.419,198.122 298.614,198.75 300.758,199.342C301.688,199.598 301.616,199.347 302.469,199.795C302.593,199.86 302.233,199.505 303.241,200.041" style="fill:none;stroke:rgb(13,13,13);stroke-width:0.85px;"/>
    </g>
    <g transform="matrix(1.96167,0,0,1.96167,-85.9709,-244.897)">
        <path d="M303.955,199.414C304.025,199.297 303.869,199.961 303.843,200.046C303.704,200.497 303.366,200.562 303.05,200.839" style="fill:none;stroke:rgb(13,13,13);stroke-width:0.85px;"/>
    </g>
    <g transform="matrix(1.72284,0.93807,-0.93807,1.72284,223.597,-486.449)">
        <path d="M317.184,249.413C317.547,249.534 316.967,250.153 316.939,250.534C316.891,251.177 316.916,251.82 316.974,252.461C317.21,255.054 316.376,257.815 315.608,260.261C315.462,260.727 315.417,262.244 314.966,262.515" style="fill:none;stroke:rgb(13,13,13);stroke-width:0.85px;"/>
    </g>
    <g transform="matrix(1.96167,0,0,1.96167,-86.4108,-241.243)">
        <path d="M321.654,298.999C321.741,298.999 322.162,299.826 322.217,299.915C322.852,300.937 323.57,301.93 324.217,302.955C324.312,303.105 324.911,303.869 324.799,304.056" style="fill:none;stroke:rgb(13,13,13);stroke-width:0.85px;"/>
    </g>
    <g transform="matrix(1.96167,0,0,1.96167,-85.9709,-244.897)">
        <path d="M304.949,346.391C305.671,347.595 305.637,349.973 305.31,351.345C305.205,351.787 304.986,353.491 304.831,353.361" style="fill:none;stroke:rgb(13,13,13);stroke-width:0.85px;"/>
    </g>
    <g transform="matrix(1.94785,0.232386,-0.232386,1.94785,-41.3825,-286.485)">
        <path d="M193.73,160.569C193.636,160.569 193.645,161.24 193.631,161.311C193.606,161.432 193.182,162.097 193.254,162.144" style="fill:none;stroke:rgb(13,13,13);stroke-width:0.85px;"/>
    </g>
    <g transform="matrix(1.9381,-0.303167,0.303167,1.9381,-126.644,-165.22)">
        <path d="M240.267,169.078C240.603,169.413 238.915,169.741 238.7,169.741" style="fill:none;stroke:rgb(13,13,13);stroke-width:0.85px;"/>
    </g>
    <g transform="matrix(1.96167,0,0,1.96167,-85.9709,-244.897)">
        <path d="M303.517,216.4C304.368,217.144 304.093,219.759 304.151,220.732C304.258,222.517 304.653,224.272 304.724,226.062C304.806,228.144 304.334,230.261 304.175,232.335" style="fill:none;stroke:rgb(13,13,13);stroke-width:0.85px;"/>
    </g>
    <g transform="matrix(1.72284,0.93807,-0.93807,1.72284,223.597,-486.449)">
        <path d="M315.714,262.899C315.539,263.337 314.62,262.699 314.454,262.492" style="fill:none;stroke:rgb(13,13,13);stroke-width:0.85px;"/>
    </g>
    <g transform="matrix(1.99779,0,0,1.96167,-98.2063,-241.368)">
        <path d="M325.626,303.886C325.425,304.355 324.748,304.804 324.201,304.585" style="fill:none;stroke:rgb(13,13,13);stroke-width:0.84px;"/>
    </g>
    <g transform="matrix(1.96167,0,0,1.96167,-85.9709,-244.897)">
        <path d="M305.761,353.778C305.761,354.186 304.672,353.75 304.484,353.703" style="fill:none;stroke:rgb(13,13,13);stroke-width:0.85px;"/>
    </g>
    <g transform="matrix(1.86797,0.599033,-0.599033,1.86797,39.0838,-390.196)">
        <path d="M264.615,172.358C265.44,171.564 266.801,171.32 267.819,170.869C270.672,169.605 273.585,169.079 276.641,168.548C277.661,168.371 278.848,168.575 279.83,168.307" style="fill:none;stroke:rgb(13,13,13);stroke-width:0.85px;"/>
    </g>
</svg>
